<svg width="48" height="48" viewBox="0 0 48 47" fill="none" xmlns="http://www.w3.org/2000/svg">
<path fill-rule="evenodd" clip-rule="evenodd" d="M36 0C36.9468 0 37.7143 0.751522 37.7143 1.67857V11.75C37.7143 12.677 36.9468 13.4286 36 13.4286C35.0532 13.4286 34.2857 12.677 34.2857 11.75V1.67857C34.2857 0.751522 35.0532 0 36 0Z" fill="#0a0a0a"/>
<path fill-rule="evenodd" clip-rule="evenodd" d="M10.2857 5.03571H29.1429C30.0896 5.03571 30.8571 5.78724 30.8571 6.71429C30.8571 7.64134 30.0896 8.39286 29.1429 8.39286H10.2857V5.03571Z" fill="#0a0a0a"/>
<path fill-rule="evenodd" clip-rule="evenodd" d="M12 0C12.9468 0 13.7143 0.751522 13.7143 1.67857V11.75C13.7143 12.677 12.9468 13.4286 12 13.4286C11.0532 13.4286 10.2857 12.677 10.2857 11.75V1.67857C10.2857 0.751522 11.0532 0 12 0Z" fill="#0a0a0a"/>
<path fill-rule="evenodd" clip-rule="evenodd" d="M46.2857 20.1429H1.71429V16.7857H46.2857V20.1429Z" fill="#0a0a0a"/>
<path fill-rule="evenodd" clip-rule="evenodd" d="M0 10.0714C0 7.29028 2.30254 5.03571 5.14286 5.03571C6.10286 5.03571 6.85714 5.78724 6.85714 6.71429C6.85714 7.64134 6.08963 8.39286 5.14286 8.39286C4.19608 8.39286 3.42857 9.14438 3.42857 10.0714V41.9643C3.42857 42.8913 4.19608 43.6429 5.14286 43.6429H42.8571C43.8039 43.6429 44.5714 42.8913 44.5714 41.9643V10.0714C44.5714 9.14438 43.8039 8.39286 42.8571 8.39286H37.7143L36 6.71429L37.7143 5.03571H42.8571C45.6975 5.03571 48 7.29028 48 10.0714V41.9643C48 44.7454 45.6975 47 42.8571 47H5.14286C2.30254 47 0 44.7454 0 41.9643V10.0714Z" fill="#0a0a0a"/>
<path fill-rule="evenodd" clip-rule="evenodd" d="M24 24.2344C24.9468 24.2344 25.7143 24.9859 25.7143 25.9129V35.9844C25.7143 36.9114 24.9468 37.6629 24 37.6629C23.0532 37.6629 22.2857 36.9114 22.2857 35.9844V25.9129C22.2857 24.9859 23.0532 24.2344 24 24.2344Z" fill="#0a0a0a"/>
<path fill-rule="evenodd" clip-rule="evenodd" d="M18.3214 29.1652C18.4146 29.1652 29.7857 29.1652 29.7857 29.1652C30.7325 29.1652 31.5 29.9167 31.5 30.8438C31.5 31.7708 30.7325 32.5223 29.7857 32.5223C29.7857 32.5223 18.4257 32.5223 18.3214 32.5223C17.3464 32.5223 16.5 31.8002 16.5 30.8438C16.5 29.8873 17.3446 29.1652 18.3214 29.1652Z" fill="#0a0a0a"/>
</svg>
