<svg width="30" height="30" viewBox="0 0 36 32" fill="none" xmlns="http://www.w3.org/2000/svg">
<path fill-rule="evenodd" clip-rule="evenodd" d="M0 10.5485C0 4.5888 4.87366 0 10.5943 0C13.5431 0 16.138 1.48334 18 3.40267C19.862 1.48334 22.4569 0 25.4057 0C31.1263 0 36 4.5888 36 10.5485C36 14.631 34.3772 18.2211 32.1288 21.2558C29.8844 24.2853 26.9485 26.8564 24.1374 28.9456C23.0637 29.7436 21.9775 30.4797 20.9834 31.0228C20.05 31.5328 18.9766 32 18 32C17.0234 32 15.95 31.5328 15.0166 31.0228C14.0225 30.4797 12.9363 29.7436 11.8626 28.9456C9.05153 26.8564 6.11562 24.2853 3.87117 21.2558C1.62284 18.2211 0 14.631 0 10.5485ZM10.5943 3.31034C6.31698 3.31034 3.08571 6.68491 3.08571 10.5485C3.08571 13.6459 4.31133 16.5297 6.28682 19.1961C8.26618 21.8677 10.9294 24.2249 13.6198 26.2245C14.6378 26.9811 15.5967 27.6249 16.4169 28.073C17.2978 28.5542 17.808 28.6897 18 28.6897C18.192 28.6897 18.7022 28.5542 19.5831 28.073C20.4033 27.6249 21.3622 26.9811 22.3802 26.2245C25.0706 24.2249 27.7338 21.8677 29.7132 19.1961C31.6887 16.5296 32.9143 13.6459 32.9143 10.5485C32.9143 6.68491 29.683 3.31034 25.4057 3.31034C22.9492 3.31034 20.6554 4.88479 19.2231 6.88314C18.9311 7.29062 18.4791 7.52941 18 7.52941C17.5209 7.52941 17.0689 7.29062 16.7769 6.88314C15.3446 4.88479 13.0508 3.31034 10.5943 3.31034Z"/>
</svg>
