<svg width="30" height="30" viewBox="0 0 36 36" fill="none" xmlns="http://www.w3.org/2000/svg">
<path fillRule="evenodd" clipRule="evenodd" d="M26.8406 13.5766C25.2642 13.5766 23.9862 14.8546 23.9862 16.4311C23.9862 18.0075 25.2642 19.2855 26.8406 19.2855C28.417 19.2855 29.6951 18.0075 29.6951 16.4311C29.6951 14.8546 28.417 13.5766 26.8406 13.5766ZM21.4147 16.4311C21.4147 13.4344 23.844 11.0052 26.8406 11.0052C29.8371 11.0052 32.2665 13.4344 32.2665 16.4311C32.2665 19.4277 29.8371 21.857 26.8406 21.857C23.844 21.857 21.4147 19.4277 21.4147 16.4311Z" fill="#0a0a0a"/>
<path fillRule="evenodd" clipRule="evenodd" d="M13.4458 10.2675C11.3225 10.2675 9.6011 11.9889 9.6011 14.1123C9.6011 16.2356 11.3225 17.957 13.4458 17.957C15.5692 17.957 17.2906 16.2356 17.2906 14.1123C17.2906 11.9889 15.5692 10.2675 13.4458 10.2675ZM7.02967 14.1123C7.02967 10.5687 9.90231 7.69608 13.4458 7.69608C16.9894 7.69608 19.862 10.5687 19.862 14.1123C19.862 17.6558 16.9894 20.5284 13.4458 20.5284C9.90231 20.5284 7.02967 17.6558 7.02967 14.1123Z" fill="#0a0a0a"/>
<path fillRule="evenodd" clipRule="evenodd" d="M7.55219 23.3572C9.24039 22.3749 11.1476 21.8571 13.09 21.8571C15.0324 21.8571 16.9396 22.3749 18.6277 23.3572C20.3153 24.3391 21.7254 25.7511 22.7265 27.4528C23.271 28.3761 24.0714 30.5933 24.3381 33.7873C24.3972 34.4949 23.8714 35.1164 23.1638 35.1755C22.4562 35.2346 21.8347 34.7089 21.7756 34.0012C21.5306 31.0673 20.8042 29.255 20.5114 28.7589C19.7299 27.4303 18.6339 26.3358 17.3345 25.5797C16.0354 24.8238 14.5739 24.4286 13.09 24.4286C11.606 24.4286 10.1445 24.8238 8.84545 25.5797C7.81568 26.1789 6.91434 26.9894 6.19559 27.9614L5.6896 28.7187C5.29512 29.3091 4.4967 29.4679 3.90628 29.0735C3.31585 28.679 3.15701 27.8805 3.55149 27.2901L4.07396 26.5082C4.08459 26.4922 4.09557 26.4766 4.1069 26.4612C5.0337 25.1997 6.20453 24.1413 7.55219 23.3572Z" fill="#0a0a0a"/>
<path fillRule="evenodd" clipRule="evenodd" d="M18 2.57143C9.47904 2.57143 2.57143 9.47904 2.57143 18C2.57143 26.5211 9.47903 33.4286 18 33.4286C26.5211 33.4286 33.4286 26.5211 33.4286 18C33.4286 9.47903 26.5211 2.57143 18 2.57143ZM0 18C0 8.05888 8.05888 0 18 0C27.9413 0 36 8.05888 36 18C36 27.9413 27.9413 36 18 36C8.05888 36 0 27.9413 0 18Z" fill="#0a0a0a"/>
<path fillRule="evenodd" clipRule="evenodd" d="M24.6667 26.1906C24.0472 26.5004 23.4684 26.9945 22.8857 27.7714L20.8286 26.2286C21.5931 25.2091 22.4631 24.4175 23.5168 23.8907C24.5704 23.3638 25.7257 23.1429 27 23.1429C28.2743 23.1429 29.4296 23.3638 30.4832 23.8907C31.5369 24.4175 32.4069 25.2091 33.1714 26.2286L31.1143 27.7714C30.5316 26.9945 29.9528 26.5004 29.3333 26.1906C28.7137 25.8808 27.9712 25.7143 27 25.7143C26.0288 25.7143 25.2863 25.8808 24.6667 26.1906Z" fill="#0a0a0a"/>
</svg>
