<svg width="50" height="50" viewBox="0 0 50 50" fill="none" xmlns="http://www.w3.org/2000/svg">
<path d="M50 25C50 38.8071 38.8071 50 25 50C11.1929 50 0 38.8071 0 25C0 11.1929 11.1929 0 25 0C38.8071 0 50 11.1929 50 25Z" fill="#FEAE2F"/>
<path fill-rule="evenodd" clip-rule="evenodd" d="M49.9693 26.25C49.318 39.4764 38.388 50 25 50C11.1929 50 0 38.8071 0 25C0 24.3693 0.0233572 23.744 0.0692537 23.125H11.875V20.625C11.875 19.9346 12.4346 19.375 13.125 19.375H23.75C24.4403 19.375 25 19.9346 25 20.625V29.375H30V16.875C30 13.125 32 13.125 33.75 13.125H39.375C41.446 13.125 43.125 13.125 43.125 16.875V26.25H49.9693Z" fill="black"/>
<path d="M13.75 21.25H15.625V23.75H13.75V21.25Z" fill="#FEAE2F"/>
<path d="M21.25 21.25H23.125V23.75H21.25V21.25Z" fill="#FEAE2F"/>
<path d="M32.5 15.625H34.375V18.125H32.5V15.625Z" fill="#FEAE2F"/>
<path d="M35.625 15.625H37.5V18.125H35.625V15.625Z" fill="#FEAE2F"/>
<path d="M35.625 19.375H37.5V21.875H35.625V19.375Z" fill="#FEAE2F"/>
<path d="M32.5 22.5H34.375V25H32.5V22.5Z" fill="#FEAE2F"/>
<path d="M25.625 33.125H27.5V35.625H25.625V33.125Z" fill="#FEAE2F"/>
<path d="M43.75 28.125H45.625V30.625H43.75V28.125Z" fill="#FEAE2F"/>
<path d="M1.875 25H3.75V27.5H1.875V25Z" fill="#FEAE2F"/>
<path d="M28.75 33.125H30V35.625H28.75V33.125Z" fill="#FEAE2F"/>
<path d="M25.625 36.875H27.5V39.375H25.625V36.875Z" fill="#FEAE2F"/>
<path d="M10.625 25H11.875V27.5H10.625V25Z" fill="#FEAE2F"/>
<path d="M17.5 25.625H19.375V28.125H17.5V25.625Z" fill="#FEAE2F"/>
<path d="M21.25 25.625H23.125V28.125H21.25V25.625Z" fill="#FEAE2F"/>
<path d="M14.375 18.75H15V19.375H14.375V18.75Z" fill="black"/>
<path d="M16.875 18.75H17.5V19.375H16.875V18.75Z" fill="black"/>
<path d="M19.375 18.75H20V19.375H19.375V18.75Z" fill="black"/>
<path d="M21.875 18.75H22.5V19.375H21.875V18.75Z" fill="black"/>
<path d="M13.125 17.5L23.75 18.125V18.75H13.125V17.5Z" fill="black"/>
<path d="M13.75 16.875H15.625V18.125H13.75V16.875Z" fill="black"/>
<path d="M15.3125 13.125L15.625 16.875H15L15.3125 13.125Z" fill="black"/>
<path d="M30 21.25L30 29.375H28.125L30 21.25Z" fill="black"/>
<path d="M35 11.875H39.375L39.375 13.125H35V11.875Z" fill="black"/>
<path d="M37.5 8.125H37.8125L38.125 11.875H37.5V8.125Z" fill="black"/>
<path d="M1.875 21.875H9.375V23.125H1.875V21.875Z" fill="black"/>
<path d="M2.5 21.25H5.625V21.875H2.5V21.25Z" fill="black"/>
<path d="M45 26.25C45 25.9048 45.2798 25.625 45.625 25.625H48.125C48.4702 25.625 48.75 25.9048 48.75 26.25C48.75 26.5952 48.4702 26.875 48.125 26.875H45.625C45.2798 26.875 45 26.5952 45 26.25Z" fill="black"/>
</svg>
